{"title":"My.Man.2014.BRRip.x264.HORiZON-ArtSubs","uid":12701145,"size":1563424857,"categoryP":"video","categoryS":"movies","magnet":"?xt=urn:btih:ed6f45c0296b7f73bee26dd4b28fd972eb301333&amp;dn=My.Man.2014.BRRip.x264.HORiZON-ArtSubs&amp;tr=udp%3A%2F%2Ftracker.leechers-paradise.org%3A6969&amp;tr=udp%3A%2F%2Fzer0day.ch%3A1337&amp;tr=udp%3A%2F%2Fopen.demonii.com%3A1337&amp;tr=udp%3A%2F%2Ftracker.coppersurfer.tk%3A6969&amp;tr=udp%3A%2F%2Fexodus.desync.com%3A6969","seeders":0,"leechers":1,"uploader":"lletaif","files":1,"time":1446778107,"description":"Media Info:\r\n\r\nGeneral\r\nUnique ID                                : 183420570120544950382702194445721194383 (0x89FD844FB401EFEF834B906A116ECF8F)\r\nComplete name                            : My.Man.2014.BRRip.x264.HORiZON-ArtSubs.mkv\r\nFormat                                   : Matroska\r\nFormat version                           : Version 2\r\nFile size                                : 1.46 GiB\r\nDuration                                 : 2h 9mn\r\nOverall bit rate mode                    : Variable\r\nOverall bit rate                         : 1 614 Kbps\r\nEncoded date                             : UTC 2015-10-22 23:52:48\r\nWriting application                      : DVDFab 9.2.0.1\r\nWriting library                          : libebml v0.7.8 + libmatroska v0.8.1\r\n\r\nVideo\r\nID                                       : 1\r\nFormat                                   : AVC\r\nFormat/Info                              : Advanced Video Codec\r\nFormat profile                           :   \r\nFormat settings, CABAC                   : Yes\r\nFormat settings, ReFrames                : 2 frames\r\nCodec ID                                 : V_MPEG4/ISO/AVC\r\nDuration                                 : 2h 9mn\r\nBit rate mode                            : Variable\r\nBit rate                                 : 1 134 Kbps\r\nMaximum bit rate                         : 1 759 Kbps\r\nWidth                                    : 1 280 pixels\r\nHeight                                   : 536 pixels\r\nDisplay aspect ratio                     : 2.40:1\r\nFrame rate mode                          : Constant\r\nFrame rate                               : 23.976 fps\r\nColor space                              : YUV\r\nChroma subsampling                       : 4:2:0\r\nBit depth                                : 8 bits\r\nScan type                                : Progressive\r\nBits/(Pixel*Frame)                       : 0.069\r\nStream size                              : 1.02 GiB (70%)\r\nDefault                                  : Yes\r\nForced                                   : No\r\n\r\nAudio\r\nID                                       : 2\r\nFormat                                   : AC-3\r\nFormat/Info                              : Audio Coding 3\r\nMode extension                           : CM (complete main)\r\nFormat settings, Endianness              : Big\r\nCodec ID                                 : A_AC3\r\nDuration                                 : 2h 9mn\r\nBit rate mode                            : Constant\r\nBit rate                                 : 448 Kbps\r\nChannel(s)                               : 6 channels\r\nChannel positions                        : Front: L C R, Side: L R, LFE\r\nSampling rate                            : 48.0 KHz\r\nBit depth                                : 16 bits\r\nCompression mode                         : Lossy\r\nStream size                              : 414 MiB (28%)\r\nLanguage                                 : Japanese\r\nDefault                                  : No\r\nForced                                   : No\r\n\r\nMenu\r\n00:00:00.000                             : en:00:00:00.000\r\n00:07:40.793                             : en:00:07:40.793\r\n00:13:56.126                             : en:00:13:56.126\r\n00:22:32.267                             : en:00:22:32.267\r\n00:32:50.259                             : en:00:32:50.259\r\n00:39:23.486                             : en:00:39:23.486\r\n00:45:08.956                             : en:00:45:08.956\r\n00:52:55.338                             : en:00:52:55.338\r\n01:03:56.707                             : en:01:03:56.707\r\n01:08:51.127                             : en:01:08:51.127\r\n01:18:09.684                             : en:01:18:09.684\r\n01:24:42.577                             : en:01:24:42.577\r\n01:27:00.215                             : en:01:27:00.215\r\n01:38:11.302                             : en:01:38:11.302\r\n01:46:23.710                             : en:01:46:23.710\r\n01:57:22.285                             : en:01:57:22.285\r\n02:05:17.510                             : en:02:05:17.510","torrent":{"xt":"urn:btih:ed6f45c0296b7f73bee26dd4b28fd972eb301333","amp;dn":"My.Man.2014.BRRip.x264.HORiZON-ArtSubs","amp;tr":["udp%3A%2F%2Ftracker.leechers-paradise.org%3A6969","udp%3A%2F%2Fzer0day.ch%3A1337","udp%3A%2F%2Fopen.demonii.com%3A1337","udp%3A%2F%2Ftracker.coppersurfer.tk%3A6969","udp%3A%2F%2Fexodus.desync.com%3A6969"],"infoHash":"ed6f45c0296b7f73bee26dd4b28fd972eb301333","infoHashBuffer":{"type":"Buffer","data":[237,111,69,192,41,107,127,115,190,226,109,212,178,143,217,114,235,48,19,51]},"announce":[],"urlList":[]}}